<?xml version="1.0" ?>
<!-- Uploaded to: SVG Repo, www.svgrepo.com, Generator: SVG Repo Mixer Tools -->
<svg width="800px" height="800px" viewBox="0 0 960 960" version="1.1" xml:space="preserve" xmlns="http://www.w3.org/2000/svg" xmlns:xlink="http://www.w3.org/1999/xlink">
<style type="text/css">
	.st0{display:none;}
	.st1{display:inline;opacity:0.93;}
	.st2{display:inline;}
	.st3{fill:none;stroke:#000000;stroke-width:15;stroke-linecap:round;stroke-linejoin:round;stroke-miterlimit:10;}
	.st4{display:inline;fill:none;stroke:#000000;stroke-width:15;stroke-linecap:round;stroke-linejoin:round;stroke-miterlimit:10;}
	.st5{fill:#222222;}
	.st6{fill:#DDEDE7;}
	.st7{fill:#1A1D3F;}
	.st8{fill:#ED644E;}
	.st9{fill:#E9B44D;}
	.st10{fill:#3DC5A1;}
	.st11{fill:#494EDF;}
</style>
<g class="st0" id="guide"/>
<g class="st0" id="sketch"/>
<g class="st0" id="stroke">
<g class="st2">
<path class="st3" d="M788.9,568.4c-2.3-55.5-1.8-105.3-3.8-181.3c-1.3-47.5-4-93.2-95.3-92.4c-30.8,0.3-46.8,0.6-120.1,1.2    l-212.2,2c-46.5,0.4-80.4,0.9-125.4,1.5c-28.3,0.3-76.7-1.5-98.5,21.2c-30.5,31.8-34.3,116.6-33.3,172.6    c1.1,60.7-4.1,135.5,45.8,170.1c32.5,22.5,117.3,17.3,156.8,16.9c0,0,317.1-3.2,374.7-3.7c33-0.3,68-2.6,89.4-27.6    C785.8,626.8,790,597.2,788.9,568.4z"/>
<path class="st3" d="M785.5,406.5c22.1-0.7,46.5-1.4,68.6-2.1c3,43.6,2.7,87.2,5.8,130.8c-24.4,0.9-47.7,1.9-72,2.8"/>
</g>
<path class="st4" d="M244.2,349.4c-17.1,0.1-34.1,0-51.2,0.3c-19.2,0.3-19.4,0-20.2,19.1c-1.2,29.8-1.1,59.6-0.9,89.4   c0.3,28.4-1,56.8-0.5,85.2c0.3,14.2-1.6,78,3.8,85.8c9.2,13.2,56.3,7.8,71.5,7.8c3.9,0,11.7-1,15.6-1.1c5.2,0,9.4-4.2,9.5-9.4   c1-89.2,2-178.3,3-267.5c0.1-5.3-4.3-9.7-9.6-9.7C258.2,349.3,251.2,349.3,244.2,349.4z"/>
<path class="st4" d="M411.4,348.3c-27.3,0.2-54.6,0.4-81.8,0.5c-6,0-10.9,4.9-10.9,11c0.1,88,0.2,176.1,0.3,264.1   c0,6.1,5,11,11,10.9c3.9,0,7.9-0.1,11.8-0.1c23.9,0,47.9-0.1,71.8-0.1c6.1,0,11-5,10.9-11c-0.7-88.1-1.4-176.3-2.1-264.5   C422.4,353.1,417.4,348.3,411.4,348.3z"/>
<path class="st4" d="M556.8,347.3c-28.9,0.2-57.7,0.4-86.5,0.6c-4.7,0-8.4,3.9-8.3,8.5c1.6,89.9,0.2,179.8,1,269.7   c0,4.6,3.8,8.3,8.4,8.3c28.9-0.1,57.8-0.3,86.7-0.5c4.6,0,8.3-3.8,8.3-8.4c-0.4-89.9-0.8-179.9-1.1-269.8   C565.2,351,561.5,347.3,556.8,347.3z"/>
<path class="st4" d="M707.6,353.5c-0.4-4.3-3.9-7.6-8.2-7.6c-20-0.2-41.2,1-61.4,1c-7.6,0.1-15.2,0.1-22.8,0.1   c-4.6,0-8.3,3.8-8.3,8.4c0.1,80.2,0.5,171.2,0.8,269.9c0,4.6,3.8,8.4,8.4,8.3c21.8-0.1,43.6-0.2,65.4-0.2c16.2,0,23.8-1,27.2-6.5   c3-4.7,3-12.9,2.8-26.8c-0.3-28.3,0-56.6,0.2-84.8C712.2,461.3,712.3,407.3,707.6,353.5z"/>
</g>
<g id="outline">
<path class="st5" d="M864.5,469.5c-0.7-21.5-1.4-43.7-2.9-65.7c-0.3-4-3.7-7.1-7.7-7c-11.1,0.4-22.8,0.7-34.5,1.1   c-8.9,0.3-17.9,0.5-26.6,0.8c-0.1-3.9-0.2-7.8-0.3-11.8c-0.6-22.8-1.3-48.7-15.3-68.4c-14.9-21-42.9-31.3-85.4-31.3   c-0.7,0-1.5,0-2.3,0c-11.1,0.1-20.4,0.2-31,0.3c-18.8,0.2-42.3,0.5-89.1,0.8l-212.2,2c-32.4,0.3-58.9,0.6-86.9,1   c-12.3,0.2-24.9,0.3-38.5,0.5c-2.4,0-4.9,0-7.5,0.1c-29.5,0.2-74.1,0.4-96.3,23.5c-14.6,15.3-24.9,42.6-30.5,81.3   c-3.9,27.2-5.6,59.7-4.9,96.6c0.1,6.2,0.2,12.5,0.2,19.1c0.4,58,0.9,123.7,48.8,157c23.3,16.2,69,19,109.5,19   c12.3,0,24.1-0.3,34.7-0.5c6.2-0.1,12-0.3,17-0.3c3.2,0,317.8-3.2,374.7-3.7c35.3-0.4,71.8-3,95.1-30.3   c17.4-20.4,25.1-48.3,23.6-85.5c-0.3-7.8-0.6-15.4-0.8-23c9.5-0.4,18.9-0.7,28.2-1.1c12-0.5,24.1-0.9,36.4-1.4c2-0.1,3.9-1,5.3-2.5   c1.4-1.5,2-3.5,1.9-5.5C865.9,512.9,865.2,490.9,864.5,469.5z M761.4,643.9c-19.2,22.5-51.9,24.7-83.8,25   c-57,0.5-371.6,3.7-374.7,3.7c-5.1,0.1-10.9,0.2-17.1,0.3c-40.7,0.9-109,2.4-135.3-15.9c-41.6-28.8-42-90.4-42.4-144.8   c0-6.7-0.1-13-0.2-19.3c-1.5-85.3,9.5-144.6,31.2-167.2c17.8-18.5,58.5-18.7,85.5-18.9c2.7,0,5.2,0,7.6-0.1   c13.7-0.2,26.3-0.3,38.6-0.5c28-0.4,54.4-0.7,86.8-1l212.2-2c46.8-0.3,70.3-0.6,89.1-0.9c10.7-0.1,19.9-0.2,31-0.3   c0.7,0,1.4,0,2.1,0c55.4,0,68.7,18.7,73.2,25c11.3,16,12,39.4,12.5,60.1c0.9,33.9,1.3,63.1,1.7,88.8c0.3,21.9,0.6,41.9,1.1,61.8   c0,0.1,0,0.2,0,0.3c0,0.1,0,0.1,0,0.2c0.3,10,0.6,20.1,1,30.4C782.7,601.9,776.2,626.5,761.4,643.9z M823.2,529   c-9.3,0.4-18.6,0.7-28,1.1c-0.4-17.4-0.7-35-0.9-54.2c-0.3-18.7-0.6-39.3-1-62.2c8.7-0.3,17.7-0.5,26.7-0.8   c9.2-0.3,18.3-0.6,27.2-0.8c1.2,19.3,1.8,38.9,2.4,57.9c0.6,19,1.2,38.5,2.4,57.9C842.2,528.3,832.7,528.7,823.2,529z M265.3,341.8   c0,0-0.1,0-0.1,0l-21.1,0.1h0c-5.8,0-11.7,0.1-17.6,0.1c-11,0-22.5,0.1-33.7,0.3l-1.1,0c-10.4,0.2-16.6,0.3-21.2,4.8   c-4.6,4.5-4.8,10.9-5.2,21.5c-1.2,30.8-1.1,61.4-0.9,89.7c0.1,12.7-0.1,25.7-0.3,38.3c-0.2,15.4-0.5,31.3-0.2,47   c0.1,2.9,0,8,0,14.5c-0.3,51.6,0.9,69.2,5.2,75.4c6.8,9.7,23.6,12.1,44.1,12.1c7.2,0,14.8-0.3,22.5-0.7c4.5-0.2,8.4-0.4,11-0.4   c2.3,0,5.4-0.3,8.7-0.6c2.6-0.2,5.4-0.5,7-0.5c9.2-0.1,16.8-7.6,16.9-16.9l0-0.3c1-89.1,2-178.1,3-267.2c0-4.6-1.7-8.9-5-12.2   C274.2,343.5,269.9,341.8,265.3,341.8z M264.4,626l0,0.3c0,1.1-0.9,2-2,2c-2.2,0-5.1,0.3-8.2,0.5c-2.7,0.2-5.7,0.5-7.4,0.5   c-3,0-7,0.2-11.7,0.4c-9.6,0.5-22.7,1.1-33.9,0.3c-15-1.1-18.8-4.2-19.6-5.1c-3-7.3-2.7-50.5-2.6-66.9c0-6.6,0.1-11.8,0-14.9   c-0.3-15.4-0.1-31.2,0.2-46.5c0.2-12.6,0.4-25.7,0.3-38.6c-0.3-28.2-0.3-58.5,0.9-89c0.2-4.2,0.4-9.3,0.9-11.2   c1.8-0.4,6.4-0.5,10.8-0.6l1.1,0c11.1-0.2,22.5-0.2,33.5-0.3c5.9,0,11.7,0,17.6-0.1l21.1-0.1c0.7,0,1.2,0.3,1.5,0.6   c0.3,0.3,0.6,0.8,0.6,1.5C266.4,447.9,265.4,536.9,264.4,626z M411.5,340.8c0,0-0.1,0-0.1,0c-27.3,0.2-54.6,0.4-81.8,0.5   c-10.1,0.1-18.3,8.4-18.3,18.5l0,26.2c0.1,79.3,0.2,158.6,0.3,237.9c0,5,1.9,9.6,5.5,13.1c3.5,3.4,8.1,5.3,13,5.3   c0.1,0,0.1,0,0.2,0c3.9,0,7.8-0.1,11.7-0.1c22.2,0,45.7,0,71.8-0.1c4.9,0,9.6-2,13.1-5.5c3.5-3.5,5.4-8.2,5.3-13.1l-2.1-264.5   C429.8,349,421.6,340.8,411.5,340.8z M416,626.1c-0.4,0.4-1.2,1-2.4,1c-26.1,0.1-49.6,0.1-71.8,0.1c-4,0-7.9,0-11.9,0.1   c0,0,0,0,0,0c-1.2,0-2-0.6-2.4-1c-0.4-0.4-1-1.2-1-2.4c-0.1-79.3-0.2-158.6-0.3-237.9l0-26.2c0-1.9,1.5-3.4,3.4-3.5   c27.3-0.2,54.6-0.4,81.8-0.5c0,0,0,0,0,0c1.9,0,3.4,1.5,3.5,3.4l2.1,264.5C417,624.9,416.4,625.8,416,626.1z M568,344.4   c-3-3-7-4.6-11.2-4.6c0,0-0.1,0-0.1,0l-86.5,0.6c-4.3,0-8.3,1.7-11.2,4.8c-3,3.1-4.6,7.1-4.5,11.4c0.9,51.3,0.8,103.5,0.8,154   c-0.1,37.9-0.1,77.1,0.2,115.6c0.1,8.7,7.2,15.7,15.9,15.7c0,0,0.1,0,0.1,0c21.7-0.1,43.3-0.2,65-0.4l21.7-0.1   c8.7-0.1,15.8-7.2,15.8-15.9c-0.4-89.9-0.8-179.9-1.1-269.8C572.7,351.4,571.1,347.4,568,344.4z M558,626.4l-21.7,0.1   c-21.7,0.1-43.3,0.3-65,0.4c0,0,0,0,0,0c-0.5,0-0.9-0.4-0.9-0.9c-0.4-38.5-0.3-77.6-0.2-115.4c0.1-50.6,0.2-102.8-0.8-154.3   c0-0.2,0.1-0.5,0.2-0.6c0.2-0.2,0.4-0.3,0.6-0.3l86.5-0.6c0.3,0,0.4,0.1,0.6,0.3s0.3,0.4,0.3,0.6c0.4,89.9,0.7,179.9,1.1,269.8   C558.9,626,558.5,626.4,558,626.4z M715.1,352.8c-0.7-8.2-7.4-14.4-15.6-14.5c-10.9-0.1-22.3,0.2-33.3,0.5   c-9.3,0.2-19,0.5-28.3,0.5l-22.8,0.1c-8.7,0.1-15.8,7.2-15.8,15.9c0.1,82,0.5,174.5,0.8,269.9c0,4.2,1.7,8.2,4.7,11.2   c3,3,7,4.6,11.2,4.6c0,0,0.1,0,0.1,0c23.2-0.1,44.6-0.2,65.4-0.2c16.5,0,27.8-0.7,33.6-10c4.2-6.7,4.2-16.3,4-30.8   c-0.2-23.2-0.1-46.7,0.1-69.5c0-5.1,0.1-10.1,0.1-15.2C719.7,457.4,719.6,405.2,715.1,352.8C715.1,352.8,715.1,352.8,715.1,352.8z    M704.3,515.2c0,5.1-0.1,10.1-0.1,15.2c-0.2,22.9-0.4,46.5-0.1,69.8c0.1,10.6,0.2,19.7-1.7,22.7c-1.5,2.4-9.5,3-20.9,3   c-20.9,0-42.3,0.1-65.4,0.2c0,0,0,0,0,0c-0.2,0-0.4-0.1-0.6-0.3c-0.2-0.2-0.3-0.4-0.3-0.6c-0.4-95.4-0.7-187.9-0.8-269.9   c0-0.5,0.4-0.9,0.9-0.9l22.8-0.1c9.4,0,19.2-0.3,28.6-0.5c9.3-0.2,18.9-0.5,28.2-0.5c1.5,0,3,0,4.5,0c0.4,0,0.8,0.3,0.8,0.8   C704.6,405.9,704.7,457.7,704.3,515.2z"/>
</g>
<g class="st0" id="flat">
<g class="st2">
<path class="st10" d="M265.2,349.3c-7,0-14.1,0.1-21.1,0.1c-17.1,0.1-34.1,0-51.2,0.3c-19.2,0.3-19.4,0-20.2,19.1    c-1.2,29.8-1.1,59.6-0.9,89.4c0.3,28.4-1,56.8-0.5,85.2c0.3,14.2-1.6,78,3.8,85.8c9.2,13.2,56.3,7.8,71.5,7.8    c3.9,0,11.7-1,15.6-1.1c5.2,0,9.4-4.2,9.5-9.4c1-89.2,2-178.3,3-267.5C274.9,353.6,270.6,349.2,265.2,349.3z"/>
<path class="st10" d="M411.4,348.3c-27.3,0.2-54.6,0.4-81.8,0.5c-6,0-10.9,4.9-10.9,11c0.1,88,0.2,176.1,0.3,264.1    c0,6.1,5,11,11,10.9c3.9,0,7.9-0.1,11.8-0.1c23.9,0,47.9-0.1,71.8-0.1c6.1,0,11-5,10.9-11c-0.7-88.1-1.4-176.3-2.1-264.5    C422.4,353.1,417.4,348.3,411.4,348.3z"/>
<path class="st10" d="M556.8,347.3c-28.9,0.2-57.7,0.4-86.5,0.6c-4.7,0-8.4,3.9-8.3,8.5c1.6,89.9,0.2,179.8,1,269.7    c0,4.6,3.8,8.3,8.4,8.3c28.9-0.1,57.8-0.3,86.7-0.5c4.6,0,8.3-3.8,8.3-8.4c-0.4-89.9-0.8-179.9-1.1-269.8    C565.2,351,561.5,347.3,556.8,347.3z"/>
<path class="st10" d="M707.6,353.5c-0.4-4.3-3.9-7.6-8.2-7.6c-20-0.2-41.2,1-61.4,1c-7.6,0.1-15.2,0.1-22.8,0.1    c-4.6,0-8.3,3.8-8.3,8.4c0.1,80.2,0.5,171.2,0.8,269.9c0,4.6,3.8,8.4,8.4,8.3c21.8-0.1,43.6-0.2,65.4-0.2c16.2,0,23.8-1,27.2-6.5    c3-4.7,3-12.9,2.8-26.8c-0.3-28.3,0-56.6,0.2-84.8C712.2,461.3,712.3,407.3,707.6,353.5z"/>
<path class="st7" d="M867.4,534.6c-1.5-21.6-2.2-43.7-2.9-65.1c-0.7-21.5-1.4-43.7-2.9-65.7c-0.3-4-3.7-7.1-7.7-7    c-11.1,0.4-22.8,0.7-34.5,1.1c-8.9,0.3-17.9,0.5-26.6,0.8c-0.1-3.9-0.2-7.8-0.3-11.8c-0.6-22.8-1.3-48.7-15.3-68.4    c-14.9-21-42.9-31.3-85.4-31.3c-0.7,0-1.5,0-2.3,0c-11.1,0.1-20.4,0.2-31,0.3c-18.8,0.2-42.3,0.5-89.1,0.8l-212.2,2    c-32.4,0.3-58.9,0.6-86.9,1c-12.3,0.2-24.9,0.3-38.5,0.5c-2.4,0-4.9,0-7.5,0.1c-29.5,0.2-74.1,0.4-96.3,23.5    c-14.6,15.3-24.9,42.6-30.5,81.3c-3.9,27.2-5.6,59.7-4.9,96.6c0.1,6.2,0.2,12.5,0.2,19.1c0.4,58,0.9,123.7,48.8,157    c23.3,16.2,69,19,109.5,19c12.3,0,24.1-0.3,34.7-0.5c6.2-0.1,12-0.3,17-0.3c3.2,0,317.8-3.2,374.7-3.7c35.3-0.4,71.8-3,95.1-30.3    c17.4-20.4,25.1-48.3,23.6-85.5c-0.3-7.8-0.6-15.4-0.8-23c9.5-0.4,18.9-0.7,28.2-1.1c12-0.5,24.1-0.9,36.4-1.4    c2-0.1,3.9-1,5.3-2.5C866.8,538.6,867.5,536.6,867.4,534.6z M761.4,643.9c-19.2,22.5-51.9,24.7-83.8,25    c-57,0.5-371.6,3.7-374.7,3.7c-5.1,0.1-10.9,0.2-17.1,0.3c-40.7,0.9-109,2.4-135.3-15.9c-41.6-28.8-42-90.4-42.4-144.8    c0-6.7-0.1-13-0.2-19.3c-1.5-85.3,9.5-144.6,31.2-167.2c17.8-18.5,58.5-18.7,85.5-18.9c2.7,0,5.2,0,7.6-0.1    c13.7-0.2,26.3-0.3,38.6-0.5c28-0.4,54.4-0.7,86.8-1l212.2-2c46.8-0.3,70.3-0.6,89.1-0.9c10.7-0.1,19.9-0.2,31-0.3    c0.7,0,1.4,0,2.1,0c55.4,0,68.7,18.7,73.2,25c11.3,16,12,39.4,12.5,60.1c0.9,33.9,1.3,63.1,1.7,88.8c0.3,21.9,0.6,41.9,1.1,61.8    c0,0.1,0,0.2,0,0.3c0,0.1,0,0.1,0,0.2c0.3,10,0.6,20.1,1,30.4C782.7,601.9,776.2,626.5,761.4,643.9z M823.2,529    c-9.3,0.4-18.6,0.7-28,1.1c-0.4-17.4-0.7-35-0.9-54.2c-0.3-18.7-0.6-39.3-1-62.2c8.7-0.3,17.7-0.5,26.7-0.8    c9.2-0.3,18.3-0.6,27.2-0.8c1.2,19.3,1.8,38.9,2.4,57.9c0.6,19,1.2,38.5,2.4,57.9C842.2,528.3,832.7,528.7,823.2,529z"/>
</g>
</g>
<g class="st0" id="colored_x5F_line">
<g class="st2">
<path class="st9" d="M265.2,349.3c-7,0-14.1,0.1-21.1,0.1c-17.1,0.1-34.1,0-51.2,0.3c-19.2,0.3-19.4,0-20.2,19.1    c-1.2,29.8-1.1,59.6-0.9,89.4c0.3,28.4-1,56.8-0.5,85.2c0.3,14.2-1.6,78,3.8,85.8c9.2,13.2,56.3,7.8,71.5,7.8    c3.9,0,11.7-1,15.6-1.1c5.2,0,9.4-4.2,9.5-9.4c1-89.2,2-178.3,3-267.5C274.9,353.6,270.6,349.2,265.2,349.3z"/>
<path class="st9" d="M411.4,348.3c-27.3,0.2-54.6,0.4-81.8,0.5c-6,0-10.9,4.9-10.9,11c0.1,88,0.2,176.1,0.3,264.1    c0,6.1,5,11,11,10.9c3.9,0,7.9-0.1,11.8-0.1c23.9,0,47.9-0.1,71.8-0.1c6.1,0,11-5,10.9-11c-0.7-88.1-1.4-176.3-2.1-264.5    C422.4,353.1,417.4,348.3,411.4,348.3z"/>
<path class="st9" d="M556.8,347.3c-28.9,0.2-57.7,0.4-86.5,0.6c-4.7,0-8.4,3.9-8.3,8.5c1.6,89.9,0.2,179.8,1,269.7    c0,4.6,3.8,8.3,8.4,8.3c28.9-0.1,57.8-0.3,86.7-0.5c4.6,0,8.3-3.8,8.3-8.4c-0.4-89.9-0.8-179.9-1.1-269.8    C565.2,351,561.5,347.3,556.8,347.3z"/>
<path class="st9" d="M699.4,345.8c-20-0.2-41.2,1-61.4,1c-7.6,0.1-15.2,0.1-22.8,0.1c-4.6,0-8.3,3.8-8.3,8.4    c0.1,80.2,0.5,171.2,0.8,269.9c0,4.6,3.8,8.4,8.4,8.3c21.8-0.1,43.6-0.2,65.4-0.2c16.2,0,23.8-1,27.2-6.5c3-4.7,3-12.9,2.8-26.8    c-0.3-28.3,0-56.6,0.2-84.8c0.4-53.9,0.5-108-4.2-161.8C707.2,349.2,703.7,345.9,699.4,345.8z"/>
<path class="st5" d="M864.5,469.5c-0.7-21.5-1.4-43.7-2.9-65.7c-0.3-4-3.7-7.1-7.7-7c-11.1,0.4-22.8,0.7-34.5,1.1    c-8.9,0.3-17.9,0.5-26.6,0.8c-0.1-3.9-0.2-7.8-0.3-11.8c-0.6-22.8-1.3-48.7-15.3-68.4c-14.9-21-42.9-31.3-85.4-31.3    c-0.7,0-1.5,0-2.3,0c-11.1,0.1-20.4,0.2-31,0.3c-18.8,0.2-42.3,0.5-89.1,0.8l-212.2,2c-32.4,0.3-58.9,0.6-86.9,1    c-12.3,0.2-24.9,0.3-38.5,0.5c-2.4,0-4.9,0-7.5,0.1c-29.5,0.2-74.1,0.4-96.3,23.5c-14.6,15.3-24.9,42.6-30.5,81.3    c-3.9,27.2-5.6,59.7-4.9,96.6c0.1,6.2,0.2,12.5,0.2,19.1c0.4,58,0.9,123.7,48.8,157c23.3,16.2,69,19,109.5,19    c12.3,0,24.1-0.3,34.7-0.5c6.2-0.1,12-0.3,17-0.3c3.2,0,317.8-3.2,374.7-3.7c35.3-0.4,71.8-3,95.1-30.3    c17.4-20.4,25.1-48.3,23.6-85.5c-0.3-7.8-0.6-15.4-0.8-23c9.5-0.4,18.9-0.7,28.2-1.1c12-0.5,24.1-0.9,36.4-1.4    c2-0.1,3.9-1,5.3-2.5c1.4-1.5,2-3.5,1.9-5.5C865.9,512.9,865.2,490.9,864.5,469.5z M761.4,643.9c-19.2,22.5-51.9,24.7-83.8,25    c-57,0.5-371.6,3.7-374.7,3.7c-5.1,0.1-10.9,0.2-17.1,0.3c-40.7,0.9-109,2.4-135.3-15.9c-41.6-28.8-42-90.4-42.4-144.8    c0-6.7-0.1-13-0.2-19.3c-1.5-85.3,9.5-144.6,31.2-167.2c17.8-18.5,58.5-18.7,85.5-18.9c2.7,0,5.2,0,7.6-0.1    c13.7-0.2,26.3-0.3,38.6-0.5c28-0.4,54.4-0.7,86.8-1l212.2-2c46.8-0.3,70.3-0.6,89.1-0.9c10.7-0.1,19.9-0.2,31-0.3    c0.7,0,1.4,0,2.1,0c55.4,0,68.7,18.7,73.2,25c11.3,16,12,39.4,12.5,60.1c0.9,33.9,1.3,63.1,1.7,88.8c0.3,21.9,0.6,41.9,1.1,61.8    c0,0.1,0,0.2,0,0.3c0,0.1,0,0.1,0,0.2c0.3,10,0.6,20.1,1,30.4C782.7,601.9,776.2,626.5,761.4,643.9z M823.2,529    c-9.3,0.4-18.6,0.7-28,1.1c-0.4-17.4-0.7-35-0.9-54.2c-0.3-18.7-0.6-39.3-1-62.2c8.7-0.3,17.7-0.5,26.7-0.8    c9.2-0.3,18.3-0.6,27.2-0.8c1.2,19.3,1.8,38.9,2.4,57.9c0.6,19,1.2,38.5,2.4,57.9C842.2,528.3,832.7,528.7,823.2,529z"/>
</g>
</g>
</svg>