<?xml version="1.0" ?>
<!-- Uploaded to: SVG Repo, www.svgrepo.com, Generator: SVG Repo Mixer Tools -->
<svg fill="#000000" width="800px" height="800px" viewBox="0 0 100 100" enable-background="new 0 0 100 100" id="Layer_1" version="1.1" xml:space="preserve" xmlns="http://www.w3.org/2000/svg" xmlns:xlink="http://www.w3.org/1999/xlink">
<g>
<path d="M17.2,67.626c1.654,0,3-1.346,3-3V41.693c0-1.654-1.346-3-3-3h-0.107c-1.654,0-3,1.346-3,3v22.933c0,1.654,1.346,3,3,3   H17.2z M16.093,64.626V41.693c0-0.552,0.448-1,1-1H17.2c0.552,0,1,0.448,1,1v22.933c0,0.552-0.448,1-1,1h-0.107   C16.541,65.626,16.093,65.178,16.093,64.626z"/>
<path d="M46.461,50.981c-0.357-0.619-1.375-0.619-1.732,0L32.085,72.881c-0.179,0.31-0.179,0.69,0,1s0.509,0.5,0.866,0.5h25.287   c0.357,0,0.688-0.19,0.866-0.5s0.179-0.69,0-1L46.461,50.981z M34.684,72.381l10.911-18.899l10.911,18.899H34.684z"/>
<path d="M44.595,58.904v6.88c0,0.553,0.447,1,1,1s1-0.447,1-1v-6.88c0-0.553-0.447-1-1-1S44.595,58.352,44.595,58.904z"/>
<path d="M45.595,67.744c-0.553,0-1,0.447-1,1v0.88c0,0.553,0.447,1,1,1s1-0.447,1-1v-0.88   C46.595,68.191,46.147,67.744,45.595,67.744z"/>
<path d="M90.181,35.248H56.243L68.87,12.073c0.224,0.046,0.456,0.071,0.694,0.071c1.89,0,3.427-1.537,3.427-3.427   s-1.537-3.427-3.427-3.427s-3.427,1.537-3.427,3.427c0,0.931,0.376,1.774,0.98,2.392L54.56,34.158L42.001,11.109   c0.604-0.618,0.979-1.461,0.979-2.391c0-1.89-1.537-3.427-3.427-3.427s-3.427,1.537-3.427,3.427s1.537,3.427,3.427,3.427   c0.238,0,0.471-0.025,0.695-0.071l12.627,23.175H27.244c1.745-2.23,2.726-4.984,2.726-7.852c0-4.195-2.062-8.126-5.514-10.516   c-0.307-0.212-0.704-0.234-1.033-0.063c-0.33,0.173-0.536,0.514-0.536,0.886v8.269l-5.705,4.133l-5.695-4.132v-8.27   c0-0.372-0.206-0.713-0.535-0.886c-0.33-0.172-0.727-0.148-1.032,0.063c-3.461,2.387-5.526,6.318-5.526,10.517   c0,4.712,2.525,8.946,6.634,11.195v29.137c-4.107,2.248-6.634,6.482-6.634,11.195c0,4.197,2.065,8.129,5.525,10.517   c0.171,0.117,0.369,0.177,0.568,0.177c0.159,0,0.318-0.038,0.465-0.114c0.329-0.173,0.535-0.514,0.535-0.886v-8.27l2.025-1.469   v5.313c0,2.992,2.434,5.426,5.425,5.426h1.821v2.217c0,1.585,1.29,2.875,2.875,2.875h4.345c1.585,0,2.875-1.29,2.875-2.875v-2.217   h46.265v2.217c0,1.585,1.29,2.875,2.875,2.875h4.346c1.585,0,2.875-1.29,2.875-2.875v-2.217h2.967c2.992,0,5.426-2.434,5.426-5.426   V40.674C95.606,37.682,93.173,35.248,90.181,35.248z M69.564,7.291c0.787,0,1.427,0.64,1.427,1.427s-0.64,1.427-1.427,1.427   s-1.427-0.64-1.427-1.427S68.777,7.291,69.564,7.291z M38.127,8.718c0-0.787,0.64-1.427,1.427-1.427s1.427,0.64,1.427,1.427   s-0.64,1.427-1.427,1.427S38.127,9.505,38.127,8.718z M9.9,79.027c-0.26,0.188-0.413,0.489-0.413,0.81v6.64   c-1.964-1.997-3.094-4.702-3.094-7.553c0-4.153,2.326-7.865,6.071-9.688c0.344-0.168,0.563-0.517,0.563-0.899V37.983   c0-0.383-0.218-0.731-0.563-0.899c-3.745-1.823-6.071-5.535-6.071-9.688c0-2.852,1.13-5.557,3.094-7.554v6.64   c0,0.32,0.153,0.621,0.413,0.81l6.694,4.857c0.35,0.254,0.824,0.254,1.174,0l6.706-4.857c0.26-0.188,0.413-0.489,0.413-0.81v-6.634   c1.957,1.997,3.083,4.701,3.083,7.548c0,3.098-1.343,6.049-3.687,8.102c-0.709,0.624-1.512,1.158-2.388,1.588   c-0.343,0.168-0.56,0.516-0.56,0.897v3.542v26.812c0,0.383,0.219,0.731,0.563,0.899c3.745,1.822,6.071,5.534,6.071,9.688   c0,0.387-0.026,0.771-0.067,1.152c-0.07,0.645-0.193,1.283-0.379,1.907c-0.099,0.33-0.213,0.657-0.344,0.98c0,0,0,0,0,0.001   c0,0.001,0,0.002-0.001,0.002c-0.174,0.434-0.386,0.848-0.613,1.252c-0.057,0.102-0.117,0.203-0.178,0.303   c-0.229,0.377-0.474,0.742-0.747,1.088c-0.015,0.019-0.027,0.04-0.043,0.059c-0.218,0.272-0.468,0.518-0.712,0.769v-3.097v-3.502   c0-0.08-0.01-0.159-0.028-0.235c-0.056-0.229-0.191-0.434-0.385-0.574l-1.382-1l-5.324-3.856c-0.35-0.254-0.825-0.255-1.175,0.001   L9.9,79.027z M29.722,81.417c0.014-0.068,0.023-0.137,0.035-0.206c0.054-0.296,0.097-0.594,0.13-0.894   c0.011-0.099,0.022-0.197,0.03-0.296c0.031-0.364,0.053-0.729,0.053-1.096c0-0.295-0.01-0.587-0.029-0.878   c-0.292-4.357-2.753-8.21-6.604-10.318V42.525h46.651v39.813H29.504C29.589,82.034,29.66,81.726,29.722,81.417z M21.201,79.127   l1.687,1.221v1.991h-1.687V79.127z M15.513,84.191v-6.761l1.67-1.215l2.019,1.462v5.661c0,0.553,0.447,1,1,1h2.687v3.278h-1.129   h-2.821C17.049,87.617,15.513,86.08,15.513,84.191z M28.854,91.834c0,0.482-0.393,0.875-0.875,0.875h-4.345   c-0.482,0-0.875-0.393-0.875-0.875v-2.217h1.129h4.966V91.834z M85.214,91.834c0,0.482-0.393,0.875-0.875,0.875h-4.346   c-0.482,0-0.875-0.393-0.875-0.875v-2.217h6.096V91.834z M93.606,84.191c0,1.889-1.537,3.426-3.426,3.426h-3.967h-8.096H29.854   h-3.295c0.002-0.002,0.003-0.003,0.004-0.005c0.241-0.259,0.467-0.53,0.685-0.808c0.067-0.085,0.129-0.174,0.193-0.26   c0.149-0.2,0.292-0.403,0.429-0.612c0.067-0.102,0.132-0.206,0.197-0.31c0.13-0.212,0.253-0.428,0.37-0.647   c0.052-0.097,0.106-0.191,0.155-0.289c0.057-0.114,0.111-0.23,0.165-0.346h42.232c0.553,0,1-0.447,1-1V41.525c0-0.553-0.447-1-1-1   H23.337V38.59c0.384-0.211,0.752-0.444,1.109-0.69c0.117-0.081,0.226-0.171,0.341-0.255c0.177-0.131,0.359-0.256,0.527-0.396   h64.867c1.889,0,3.426,1.537,3.426,3.426V84.191z"/>
<path d="M77.778,62.739c2.133,0,3.867-1.734,3.867-3.866c0-2.133-1.734-3.867-3.867-3.867c-2.132,0-3.866,1.734-3.866,3.867   C73.912,61.005,75.646,62.739,77.778,62.739z M77.778,57.006c1.029,0,1.867,0.838,1.867,1.867s-0.838,1.866-1.867,1.866   s-1.866-0.837-1.866-1.866S76.749,57.006,77.778,57.006z"/>
<path d="M87.813,55.006c-2.133,0-3.867,1.734-3.867,3.867c0,2.132,1.734,3.866,3.867,3.866c2.132,0,3.866-1.734,3.866-3.866   C91.679,56.74,89.944,55.006,87.813,55.006z M87.813,60.739c-1.029,0-1.867-0.837-1.867-1.866s0.838-1.867,1.867-1.867   s1.866,0.838,1.866,1.867S88.842,60.739,87.813,60.739z"/>
<path d="M77.778,52.481c2.133,0,3.867-1.734,3.867-3.866s-1.734-3.866-3.867-3.866c-2.132,0-3.866,1.734-3.866,3.866   S75.646,52.481,77.778,52.481z M77.778,46.749c1.029,0,1.867,0.837,1.867,1.866s-0.838,1.866-1.867,1.866s-1.866-0.837-1.866-1.866   S76.749,46.749,77.778,46.749z"/>
<path d="M87.813,44.749c-2.133,0-3.867,1.734-3.867,3.866s1.734,3.866,3.867,3.866c2.132,0,3.866-1.734,3.866-3.866   S89.944,44.749,87.813,44.749z M87.813,50.481c-1.029,0-1.867-0.837-1.867-1.866s0.838-1.866,1.867-1.866s1.866,0.837,1.866,1.866   S88.842,50.481,87.813,50.481z"/>
<path d="M90.618,76.412H74.974c-0.553,0-1,0.447-1,1s0.447,1,1,1h15.645c0.553,0,1-0.447,1-1S91.171,76.412,90.618,76.412z"/>
<path d="M90.618,72.505H74.974c-0.553,0-1,0.447-1,1s0.447,1,1,1h15.645c0.553,0,1-0.447,1-1S91.171,72.505,90.618,72.505z"/>
<path d="M90.618,68.576H74.974c-0.553,0-1,0.447-1,1s0.447,1,1,1h15.645c0.553,0,1-0.447,1-1S91.171,68.576,90.618,68.576z"/>
<path d="M90.618,80.399H74.974c-0.553,0-1,0.447-1,1s0.447,1,1,1h15.645c0.553,0,1-0.447,1-1S91.171,80.399,90.618,80.399z"/>
</g>
</svg>