<?xml version="1.0" encoding="iso-8859-1"?>
<!-- Uploaded to: SVG Repo, www.svgrepo.com, Generator: SVG Repo Mixer Tools -->
<svg fill="#000000" height="800px" width="800px" version="1.1" id="Layer_1" xmlns="http://www.w3.org/2000/svg" xmlns:xlink="http://www.w3.org/1999/xlink" 
	 viewBox="0 0 503.607 503.607" xml:space="preserve">
<g>
	<g>
		<path d="M230.565,191.371l-7.554-34.413c-3.357-13.43-15.108-22.662-28.538-22.662H42.551c-14.269,0-26.02,9.233-29.377,22.662
			L5.62,191.37c-6.715,29.377-7.554,61.272-0.839,90.649c6.715,28.538,10.072,51.2,10.911,72.184l1.679,23.502v58.754
			c0,36.931,30.216,67.148,67.148,67.148h67.148c36.931,0,67.148-30.216,67.148-67.148v-57.915l1.679-24.341
			c1.679-20.984,5.036-43.646,10.911-72.184C237.279,252.643,237.279,220.748,230.565,191.371z M214.617,277.823
			c-5.875,29.377-9.233,52.879-10.911,74.702l-1.679,24.341v58.754c0,27.698-22.662,50.361-50.361,50.361H84.519
			c-27.698,0-50.361-22.662-50.361-50.361v-58.754l-0.839-22.662c-0.839-21.823-4.197-45.325-10.911-74.702
			c-5.875-27.698-5.875-56.236,0.839-83.934l7.554-34.413c0.839-5.875,11.751-11.751,11.751-11.751h151.921
			c5.036,0,10.072,4.197,11.751,10.072l7.554,34.413C220.492,221.587,220.492,250.125,214.617,277.823z"/>
	</g>
</g>
<g>
	<g>
		<path d="M68.571,0c-14.269,0-25.18,10.911-25.18,24.341v115.83c0,5.036,3.357,8.393,8.393,8.393h32.734
			c5.036,0,8.393-3.357,9.233-9.233V24.341C93.751,10.911,82.84,0,68.571,0z M76.125,131.777H60.178L59.338,24.341
			c0-5.036,3.357-8.393,8.393-8.393c5.036,0,8.393,4.197,8.393,8.393V131.777z"/>
	</g>
</g>
<g>
	<g>
		<path d="M127.325,83.095c-14.269,0-25.18,10.072-25.18,24.341v32.734c0,5.036,3.357,8.393,8.393,8.393h33.574
			c4.197,0,8.393-3.357,8.393-8.393v-32.734C152.506,94.007,141.594,83.095,127.325,83.095z M135.719,131.777h-16.787v-24.341
			c0-5.036,3.357-8.393,8.393-8.393c5.036,0,8.393,3.357,8.393,8.393V131.777z"/>
	</g>
</g>
<g>
	<g>
		<path d="M186.079,83.095c-14.269,0-25.18,10.072-25.18,24.341v32.734c0,5.036,3.357,8.393,8.393,8.393h33.574
			c4.197,0,8.393-3.357,8.393-8.393v-32.734C211.26,94.007,200.348,83.095,186.079,83.095z M194.473,131.777h-16.787v-24.341
			c0-5.036,3.357-8.393,8.393-8.393s8.393,3.357,8.393,8.393V131.777z"/>
	</g>
</g>
<g>
	<g>
		<path d="M193.633,167.869H42.551c-5.036,0-8.393,3.357-8.393,8.393v83.934c0,5.036,3.357,8.393,8.393,8.393h151.082
			c5.036,0,8.393-3.357,8.393-8.393v-83.934C202.027,171.226,198.669,167.869,193.633,167.869z M185.24,251.803H50.945v-67.148
			H185.24V251.803z"/>
	</g>
</g>
<g>
	<g>
		<path d="M84.519,369.311H67.732c-5.036,0-8.393,3.357-8.393,8.393c0,5.036,3.357,8.393,8.393,8.393h16.787
			c5.036,0,8.393-3.357,8.393-8.393C92.912,372.669,89.555,369.311,84.519,369.311z"/>
	</g>
</g>
<g>
	<g>
		<path d="M67.732,285.377h-25.18c-5.036,0-8.393,3.357-8.393,8.393s3.357,8.393,8.393,8.393h25.18c5.036,0,8.393-3.357,8.393-8.393
			S72.768,285.377,67.732,285.377z"/>
	</g>
</g>
<g>
	<g>
		<path d="M126.486,369.311h-16.787c-5.036,0-8.393,3.357-8.393,8.393c0,5.036,3.357,8.393,8.393,8.393h16.787
			c5.036,0,8.393-3.357,8.393-8.393C134.879,372.669,131.522,369.311,126.486,369.311z"/>
	</g>
</g>
<g>
	<g>
		<path d="M168.453,369.311h-16.787c-5.036,0-8.393,3.357-8.393,8.393c0,5.036,3.357,8.393,8.393,8.393h16.787
			c5.036,0,8.393-3.357,8.393-8.393C176.847,372.669,173.489,369.311,168.453,369.311z"/>
	</g>
</g>
<g>
	<g>
		<path d="M84.519,335.738H67.732c-5.036,0-8.393,3.357-8.393,8.393c0,5.036,3.357,8.393,8.393,8.393h16.787
			c5.036,0,8.393-3.357,8.393-8.393C92.912,339.095,89.555,335.738,84.519,335.738z"/>
	</g>
</g>
<g>
	<g>
		<path d="M126.486,335.738h-16.787c-5.036,0-8.393,3.357-8.393,8.393c0,5.036,3.357,8.393,8.393,8.393h16.787
			c5.036,0,8.393-3.357,8.393-8.393C134.879,339.095,131.522,335.738,126.486,335.738z"/>
	</g>
</g>
<g>
	<g>
		<path d="M168.453,335.738h-16.787c-5.036,0-8.393,3.357-8.393,8.393c0,5.036,3.357,8.393,8.393,8.393h16.787
			c5.036,0,8.393-3.357,8.393-8.393C176.847,339.095,173.489,335.738,168.453,335.738z"/>
	</g>
</g>
<g>
	<g>
		<path d="M84.519,402.885H67.732c-5.036,0-8.393,3.357-8.393,8.393s3.357,8.393,8.393,8.393h16.787
			c5.036,0,8.393-3.357,8.393-8.393S89.555,402.885,84.519,402.885z"/>
	</g>
</g>
<g>
	<g>
		<path d="M126.486,402.885h-16.787c-5.036,0-8.393,3.357-8.393,8.393s3.357,8.393,8.393,8.393h16.787
			c5.036,0,8.393-3.357,8.393-8.393S131.522,402.885,126.486,402.885z"/>
	</g>
</g>
<g>
	<g>
		<path d="M168.453,402.885h-16.787c-5.036,0-8.393,3.357-8.393,8.393s3.357,8.393,8.393,8.393h16.787
			c5.036,0,8.393-3.357,8.393-8.393S173.489,402.885,168.453,402.885z"/>
	</g>
</g>
<g>
	<g>
		<path d="M84.519,436.459H67.732c-5.036,0-8.393,3.357-8.393,8.393c0,5.036,3.357,8.393,8.393,8.393h16.787
			c5.036,0,8.393-3.357,8.393-8.393C92.912,439.816,89.555,436.459,84.519,436.459z"/>
	</g>
</g>
<g>
	<g>
		<path d="M126.486,436.459h-16.787c-5.036,0-8.393,3.357-8.393,8.393c0,5.036,3.357,8.393,8.393,8.393h16.787
			c5.036,0,8.393-3.357,8.393-8.393C134.879,439.816,131.522,436.459,126.486,436.459z"/>
	</g>
</g>
<g>
	<g>
		<path d="M168.453,436.459h-16.787c-5.036,0-8.393,3.357-8.393,8.393c0,5.036,3.357,8.393,8.393,8.393h16.787
			c5.036,0,8.393-3.357,8.393-8.393C176.847,439.816,173.489,436.459,168.453,436.459z"/>
	</g>
</g>
<g>
	<g>
		<path d="M193.633,285.377H92.912c-5.036,0-8.393,3.357-8.393,8.393s3.357,8.393,8.393,8.393h100.721
			c5.036,0,8.393-3.357,8.393-8.393S198.669,285.377,193.633,285.377z"/>
	</g>
</g>
<g>
	<g>
		<path d="M498.315,191.37l-7.554-34.413c-3.357-13.43-15.108-22.662-28.538-22.662H310.302c-13.43,0-25.18,9.233-28.538,22.662
			l-7.554,34.413c-6.715,29.377-7.554,60.433-0.839,90.649c6.715,28.538,10.072,51.2,10.911,72.184l1.679,23.502v58.754
			c0,36.931,30.216,67.148,67.148,67.148h67.148c36.931,0,67.148-30.216,67.148-67.148v-57.915l0.839-24.341
			c1.679-20.984,5.036-43.646,10.911-72.184C505.03,252.643,505.03,220.748,498.315,191.37z M484.047,279.502
			c-5.875,29.377-10.072,52.879-10.911,74.702l-1.679,24.341v58.754c0,27.698-22.662,50.361-50.361,50.361h-67.148
			c-27.698,0-50.361-22.662-50.361-50.361v-58.754l-1.679-24.341c-0.839-21.823-5.036-45.325-10.911-74.702
			c-5.875-27.698-5.875-56.236,0.839-83.934l7.554-34.413c0.839-5.875,5.875-10.072,11.751-10.072c0,0,152.761,0,152.761,0
			c5.036,0,10.072,4.197,11.751,10.072l7.554,34.413C489.922,223.266,489.922,251.803,484.047,279.502z"/>
	</g>
</g>
<g>
	<g>
		<path d="M337.161,0c-14.269,0-25.18,11.751-25.18,25.18v117.508c0,5.036,3.357,8.393,8.393,8.393h32.734
			c5.036,0,8.393-3.357,9.233-8.393V25.18C362.342,10.911,351.43,0,337.161,0z M344.715,134.295h-15.948L327.928,25.18
			c0-5.036,3.357-8.393,8.393-8.393c5.036,0,8.393,4.197,8.393,8.393V134.295z"/>
	</g>
</g>
<g>
	<g>
		<path d="M395.915,83.934c-14.269,0-25.18,10.911-25.18,25.18v33.574c0,5.036,3.357,8.393,8.393,8.393h33.574
			c4.197,0,8.393-3.357,8.393-8.393v-33.574C421.096,94.846,410.184,83.934,395.915,83.934z M404.309,134.295h-16.787v-25.18
			c0-5.036,3.357-8.393,8.393-8.393c5.036,0,8.393,3.357,8.393,8.393V134.295z"/>
	</g>
</g>
<g>
	<g>
		<path d="M454.669,83.934c-14.269,0-25.18,10.911-25.18,25.18v33.574c0,5.036,3.357,8.393,8.393,8.393h33.574
			c4.197,0,8.393-3.357,8.393-8.393v-33.574C479.85,94.846,468.938,83.934,454.669,83.934z M463.063,134.295h-16.787v-25.18
			c0-5.036,3.357-8.393,8.393-8.393c5.036,0,8.393,3.357,8.393,8.393V134.295z"/>
	</g>
</g>
<g>
	<g>
		<path d="M462.224,167.869H311.142c-5.036,0-8.393,3.357-8.393,8.393v83.934c0,5.036,3.357,8.393,8.393,8.393h151.082
			c5.036,0,8.393-3.357,8.393-8.393v-83.934C470.617,171.226,467.26,167.869,462.224,167.869z M453.83,251.803H319.535v-67.148
			H453.83V251.803z"/>
	</g>
</g>
<g>
	<g>
		<path d="M353.109,369.311h-16.787c-5.036,0-8.393,3.357-8.393,8.393c0,5.036,3.357,8.393,8.393,8.393h16.787
			c5.036,0,8.393-3.357,8.393-8.393C361.502,372.669,358.145,369.311,353.109,369.311z"/>
	</g>
</g>
<g>
	<g>
		<path d="M336.322,285.377h-25.18c-5.036,0-8.393,3.357-8.393,8.393s3.357,8.393,8.393,8.393h25.18
			c5.036,0,8.393-3.357,8.393-8.393S341.358,285.377,336.322,285.377z"/>
	</g>
</g>
<g>
	<g>
		<path d="M395.076,369.311h-16.787c-5.036,0-8.393,3.357-8.393,8.393c0,5.036,3.357,8.393,8.393,8.393h16.787
			c5.036,0,8.393-3.357,8.393-8.393C403.469,372.669,400.112,369.311,395.076,369.311z"/>
	</g>
</g>
<g>
	<g>
		<path d="M437.043,369.311h-16.787c-5.036,0-8.393,3.357-8.393,8.393c0,5.036,3.357,8.393,8.393,8.393h16.787
			c5.036,0,8.393-3.357,8.393-8.393C445.437,372.669,442.079,369.311,437.043,369.311z"/>
	</g>
</g>
<g>
	<g>
		<path d="M353.109,335.738h-16.787c-5.036,0-8.393,3.357-8.393,8.393c0,5.036,3.357,8.393,8.393,8.393h16.787
			c5.036,0,8.393-3.357,8.393-8.393C361.502,339.095,358.145,335.738,353.109,335.738z"/>
	</g>
</g>
<g>
	<g>
		<path d="M395.076,335.738h-16.787c-5.036,0-8.393,3.357-8.393,8.393c0,5.036,3.357,8.393,8.393,8.393h16.787
			c5.036,0,8.393-3.357,8.393-8.393C403.469,339.095,400.112,335.738,395.076,335.738z"/>
	</g>
</g>
<g>
	<g>
		<path d="M437.043,335.738h-16.787c-5.036,0-8.393,3.357-8.393,8.393c0,5.036,3.357,8.393,8.393,8.393h16.787
			c5.036,0,8.393-3.357,8.393-8.393C445.437,339.095,442.079,335.738,437.043,335.738z"/>
	</g>
</g>
<g>
	<g>
		<path d="M353.109,402.885h-16.787c-5.036,0-8.393,3.357-8.393,8.393s3.357,8.393,8.393,8.393h16.787
			c5.036,0,8.393-3.357,8.393-8.393S358.145,402.885,353.109,402.885z"/>
	</g>
</g>
<g>
	<g>
		<path d="M395.076,402.885h-16.787c-5.036,0-8.393,3.357-8.393,8.393s3.357,8.393,8.393,8.393h16.787
			c5.036,0,8.393-3.357,8.393-8.393S400.112,402.885,395.076,402.885z"/>
	</g>
</g>
<g>
	<g>
		<path d="M437.043,402.885h-16.787c-5.036,0-8.393,3.357-8.393,8.393s3.357,8.393,8.393,8.393h16.787
			c5.036,0,8.393-3.357,8.393-8.393S442.079,402.885,437.043,402.885z"/>
	</g>
</g>
<g>
	<g>
		<path d="M353.109,436.459h-16.787c-5.036,0-8.393,3.357-8.393,8.393c0,5.036,3.357,8.393,8.393,8.393h16.787
			c5.036,0,8.393-3.357,8.393-8.393C361.502,439.816,358.145,436.459,353.109,436.459z"/>
	</g>
</g>
<g>
	<g>
		<path d="M395.076,436.459h-16.787c-5.036,0-8.393,3.357-8.393,8.393c0,5.036,3.357,8.393,8.393,8.393h16.787
			c5.036,0,8.393-3.357,8.393-8.393C403.469,439.816,400.112,436.459,395.076,436.459z"/>
	</g>
</g>
<g>
	<g>
		<path d="M437.043,436.459h-16.787c-5.036,0-8.393,3.357-8.393,8.393c0,5.036,3.357,8.393,8.393,8.393h16.787
			c5.036,0,8.393-3.357,8.393-8.393C445.437,439.816,442.079,436.459,437.043,436.459z"/>
	</g>
</g>
<g>
	<g>
		<path d="M462.224,285.377H361.502c-5.036,0-8.393,3.357-8.393,8.393s3.357,8.393,8.393,8.393h100.721
			c5.036,0,8.393-3.357,8.393-8.393S467.26,285.377,462.224,285.377z"/>
	</g>
</g>
</svg>